<svg width="94" height="113" viewBox="0 0 94 113" fill="none" xmlns="http://www.w3.org/2000/svg">
<path fill-rule="evenodd" clip-rule="evenodd" d="M81 24.3804V111H1V6H62.4827L81 24.3804Z" fill="white"/>
<path fill-rule="evenodd" clip-rule="evenodd" d="M81 24.1635V111H74V17L81 24.1635Z" fill="#E1EAF8"/>
<path fill-rule="evenodd" clip-rule="evenodd" d="M62.1448 24.8555L81 25L62 6L62.1448 24.8555Z" fill="#E1EAF8"/>
<path fill-rule="evenodd" clip-rule="evenodd" d="M46.6231 13H40.3769L39 1H48L46.6231 13Z" fill="#76FFD9"/>
<path fill-rule="evenodd" clip-rule="evenodd" d="M28.6547 98.3443C25.1907 94.8803 22.6015 90.7746 21 86.2952L34.2021 81C35.07 83.6759 36.5651 86.1914 38.6872 88.3127C40.8096 90.434 43.3243 91.9299 46 92.798L40.7048 106C36.2256 104.398 32.1187 101.808 28.6547 98.3443Z" fill="#76FFD9"/>
<path fill-rule="evenodd" clip-rule="evenodd" d="M14 28H23V19H14V28Z" fill="#76FFD9"/>
<path fill-rule="evenodd" clip-rule="evenodd" d="M41.3666 56H12.7015C11.8072 56 11.0271 56.8437 11.0008 57.9384C10.9727 59.0707 11.7145 60 12.6333 60H41.3666C42.2682 60 43 59.104 43 58C43 56.8947 42.2682 56 41.3666 56Z" fill="#969BA1"/>
<path fill-rule="evenodd" clip-rule="evenodd" d="M12.7015 52H41.3666C42.2682 52 43 51.104 43 50C43 48.8947 42.2682 48 41.3666 48H12.6333C11.7145 48 10.9727 48.928 11.0008 50.0613C11.0271 51.1563 11.8072 52 12.7015 52Z" fill="#969BA1"/>
<path fill-rule="evenodd" clip-rule="evenodd" d="M12.7015 43H41.3666C42.2682 43 43 42.1043 43 41C43 39.8949 42.2682 39 41.3666 39H12.6333C11.7145 39 10.9727 39.9283 11.0008 41.0616C11.0271 42.1552 11.8072 43 12.7015 43Z" fill="#969BA1"/>
<path fill-rule="evenodd" clip-rule="evenodd" d="M39.2902 87.7094C37.4244 85.8429 36.0673 83.6321 35.2582 81.1369C35.1177 80.7036 34.8034 80.3483 34.3917 80.1556C33.979 79.9622 33.5055 79.9484 33.0825 80.1179L20.0325 85.3521C19.2123 85.6809 18.7987 86.5998 19.0965 87.4321C20.7833 92.1491 23.4592 96.361 27.0493 99.9512C30.6386 103.541 34.8505 106.216 39.5686 107.904C39.7509 107.969 39.9383 108 40.1216 108C40.7759 108 41.3914 107.608 41.6474 106.968L46.8817 93.9173C47.0511 93.4952 47.0384 93.0208 46.8448 92.6089C46.6522 92.1962 46.2968 91.8819 45.8635 91.7416C43.3686 90.9323 41.1569 89.5761 39.2902 87.7094ZM39.2012 104.238C35.5373 102.709 32.2373 100.49 29.3741 97.6264C26.5107 94.7623 24.2913 91.4623 22.7631 87.7993L32.7478 83.7956C33.7374 86.1125 35.176 88.2447 36.9656 90.0351C38.7551 91.8246 40.8879 93.263 43.205 94.2529L39.2012 104.238Z" fill="#434C54"/>
<path fill-rule="evenodd" clip-rule="evenodd" d="M60.5687 71.1337H57.2517C57.1736 70.2728 56.4777 69.5992 55.6296 69.5992C54.7292 69.5992 54 70.3584 54 71.2944C54 73.0752 55.3921 74.524 57.1039 74.524H57.8705V76.3048C57.8705 77.2406 58.5995 78 59.5001 78C60.3997 78 61.1297 77.2406 61.1297 76.3048V74.4824C63.3084 74.1947 65 72.2575 65 69.9143C65 67.3725 63.0123 65.3048 60.5687 65.3048H58.4306C57.7847 65.3048 57.2584 64.7583 57.2584 64.0855C57.2584 63.4135 57.7847 62.8663 58.4306 62.8663H61.7477C61.8257 63.727 62.5225 64.4008 63.3704 64.4008C64.2701 64.4008 65 63.6413 65 62.7056C65 60.9248 63.6072 59.476 61.8961 59.476H61.1297V57.6952C61.1297 56.7592 60.3997 56 59.5001 56C58.5995 56 57.8705 56.7592 57.8705 57.6952V59.5173C55.6916 59.8053 54 61.7423 54 64.0855C54 66.6273 55.9879 68.6952 58.4306 68.6952H60.5687C61.2153 68.6952 61.7407 69.2417 61.7407 69.9143C61.7407 70.5863 61.2145 71.1337 60.5687 71.1337Z" fill="#434C54"/>
<path fill-rule="evenodd" clip-rule="evenodd" d="M46.5182 54.5167C53.6761 47.3585 65.3239 47.3576 72.4838 54.5167C79.6435 61.6756 79.6417 73.3244 72.4838 80.4827C67.439 85.5275 60.166 87.0183 53.8038 84.9534L48.5277 98.1112C52.0014 99.3518 55.7013 100 59.5006 100C68.1804 100 76.3425 96.6194 82.481 90.4809C88.6186 84.343 92 76.181 92 67.501C92 58.819 88.6195 50.6579 82.481 44.5191C76.3425 38.3806 68.1822 35 59.4997 35C50.8198 35 42.6577 38.3814 36.5199 44.5191C30.3814 50.6579 27 58.8199 27 67.5001C27 71.2983 27.6493 74.9991 28.8897 78.4729L42.0464 73.1958C39.9824 66.8345 41.4734 59.5615 46.5182 54.5167Z" fill="#FFC843"/>
<path fill-rule="evenodd" clip-rule="evenodd" d="M84.0176 43.1318C83.6712 42.7839 83.3191 42.4474 82.9607 42.1169V24.4717C82.9607 24.0314 82.7868 23.6092 82.4765 23.2969L64.0397 4.77695C63.7297 4.46551 63.3094 4.29075 62.8699 4.29075H48.261L48.5342 1.84734C48.5867 1.37753 48.4376 0.906836 48.1241 0.554645C47.8105 0.201568 47.3617 0 46.8907 0H38.5801C38.1089 0 37.6601 0.201568 37.3465 0.554645C37.033 0.906836 36.8841 1.37753 36.9366 1.84734L37.2096 4.29075H1.65384C0.740699 4.29075 0 5.03411 0 5.95202V18.5336C0 19.4507 0.740699 20.1949 1.65384 20.1949C2.56698 20.1949 3.30768 19.4507 3.30768 18.5336V7.6133H37.5827L38.2081 13.1976C38.3018 14.0378 39.0099 14.6728 39.8516 14.6728H45.6193C46.4607 14.6728 47.1688 14.0378 47.2627 13.1976L47.889 7.6133H61.2291L61.3565 24.3446C61.3634 25.2523 62.0948 25.9859 62.9976 25.993L79.6531 26.121V39.4199C73.9275 35.3176 67.0916 33.1044 59.9164 33.1044C49.5686 33.1044 39.5629 38.0364 33.1559 46.1808C31.6565 48.088 30.3557 50.1551 29.2937 52.3389C25.3055 60.5431 24.7584 70.2979 27.8156 78.8976C27.9671 79.3224 28.2842 79.6686 28.6941 79.8538C28.9095 79.9506 29.1411 80 29.3728 80C29.5821 80 29.7907 79.9601 29.9887 79.8806L43.1169 74.5913C43.9249 74.2659 44.3436 73.368 44.0748 72.5373C42.4915 67.6372 43.2565 62.182 46.1214 57.9431C46.6338 57.1834 46.4376 56.1503 45.6812 55.6355C44.9258 55.1207 43.8973 55.3179 43.3839 56.0767C40.2408 60.7292 39.2063 66.6017 40.5078 72.0631L30.398 76.1359C29.5631 73.2951 29.1411 70.3438 29.1411 67.3397C29.1411 59.0834 32.3429 51.3204 38.1563 45.4809C43.969 39.6423 51.6964 36.4269 59.9164 36.4269C68.1373 36.4269 75.8664 39.6423 81.678 45.4809C87.4907 51.3197 90.6923 59.0825 90.6923 67.3406C90.6923 68.2585 91.4324 69.0019 92.3462 69.0019C93.2593 69.0019 94 68.2585 94 67.3406C94 58.1956 90.4546 49.5978 84.0176 43.1318ZM44.1412 11.3503H41.3296L40.7076 5.79896C40.7069 5.78412 40.7052 5.77039 40.7034 5.75555L40.4304 3.32255H45.0404L44.1412 11.3503ZM64.6514 22.6833L64.5548 9.99358L77.2843 22.7803L64.6514 22.6833Z" fill="#434C54"/>
<path fill-rule="evenodd" clip-rule="evenodd" d="M91.6794 72.1201C90.7888 71.9405 89.9177 72.5172 89.7374 73.4092C88.5464 79.2889 85.6545 84.6632 81.3721 88.9511C75.5814 94.7509 67.8821 97.9455 59.6929 97.9455C56.7133 97.9455 53.7862 97.5243 50.9689 96.6924L55.0083 86.6065C61.7463 88.2437 68.814 86.2894 73.764 81.331C81.5233 73.5597 81.5233 60.916 73.764 53.1447C70.4026 49.7781 65.9377 47.7283 61.1911 47.3726C56.4971 47.0192 51.8261 48.3367 48.0383 51.0811C47.301 51.6157 47.1356 52.647 47.6684 53.3854C48.2022 54.1236 49.2321 54.2895 49.9691 53.7557C56.5006 49.0234 65.729 49.7645 71.434 55.4789C77.9079 61.9628 77.9079 72.5128 71.434 78.9976C66.9983 83.4401 60.5244 84.9906 54.5388 83.0456C53.7141 82.7776 52.8233 83.1952 52.5006 84.0005L47.2556 97.1006C47.0884 97.5166 47.0987 97.9833 47.2824 98.3923C47.4658 98.8016 47.8083 99.1178 48.2305 99.2691C51.8982 100.581 55.7557 101.246 59.6929 101.246C66.8404 101.246 73.6506 99.0473 79.3548 94.9716V109.7H3.29529V25.6502C3.29529 24.7382 2.55736 24 1.64765 24C0.737925 24 0 24.7382 0 25.6502V111.35C0 112.262 0.737925 113 1.64765 113H81.0024C81.9128 113 82.6501 112.262 82.6501 111.35V92.2928C83.007 91.9645 83.3588 91.6301 83.703 91.2847C88.4434 86.537 91.6469 80.5824 92.9667 74.066C93.1478 73.1729 92.572 72.3014 91.6794 72.1201Z" fill="#434C54"/>
</svg>
