<svg width="189" height="36" viewBox="0 0 189 36" fill="none" xmlns="http://www.w3.org/2000/svg">
<g id="logo">
<path id="we" fill-rule="evenodd" clip-rule="evenodd" d="M55.5216 36C58.6429 36 61.3386 35.1883 63.6086 33.5648C65.8787 31.9413 67.3921 29.8056 68.1487 27.1576H59.3996C59.0212 27.6305 58.7138 27.9694 58.4774 28.1743C58.2409 28.3792 57.8705 28.5841 57.366 28.789C56.8615 28.9939 56.097 29.0963 55.0723 29.0963C54.0476 29.0963 53.0939 28.7259 52.2111 27.9851C51.3283 27.2443 50.8081 26.2907 50.6504 25.1243H68.8108C68.9369 24.3363 69 23.4851 69 22.5709C69 18.3152 67.7231 14.9895 65.1693 12.5937C62.6155 10.1979 59.3996 9 55.5216 9C51.6436 9 48.4829 10.2137 46.0394 12.641C43.596 15.0683 42.3742 18.331 42.3742 22.4291C42.3742 26.5271 43.6038 29.8135 46.0631 32.2881C48.5223 34.7627 51.6751 36 55.5216 36ZM16.5997 35.669L20.3358 20.0648L24.0247 35.669H32.7265L40.6244 9.28371H33.0103L28.8958 27.8196L24.8286 9.28371H16.2687L12.2015 27.8196L8.08705 9.28371H0L7.89788 35.669H16.5997ZM50.6977 20.0648H60.5819C60.4558 18.8354 59.9198 17.8345 58.974 17.0622C58.0281 16.2898 56.9088 15.9037 55.6162 15.9037C54.3235 15.9037 53.2358 16.2898 52.353 17.0622C51.4702 17.8345 50.9184 18.8354 50.6977 20.0648Z" fill="#2ECC71"/>
<g id="Group 9">
<path id="dev" fill-rule="evenodd" clip-rule="evenodd" d="M84.487 35.7526C87.7964 35.7526 90.4375 34.356 92.4104 31.5627V35.4194H100.572V0.185806H92.4104V12.3271C90.5966 9.81948 87.9952 8.56568 84.6063 8.56568C81.2174 8.56568 78.3456 9.84329 75.9908 12.3985C73.6361 14.9537 72.4587 18.2152 72.4587 22.183C72.4587 26.1507 73.6361 29.4043 75.9908 31.9436C78.3456 34.483 81.1776 35.7526 84.487 35.7526ZM86.5872 28.7059C85.0598 28.7059 83.7074 28.1425 82.53 27.0157C81.3526 25.8888 80.7639 24.2779 80.7639 22.183C80.7639 20.088 81.3526 18.4692 82.53 17.3265C83.7074 16.1837 85.0598 15.6124 86.5872 15.6124C88.1146 15.6124 89.467 16.1758 90.6443 17.3026C91.8217 18.4295 92.4104 20.0404 92.4104 22.1354C92.4104 24.2303 91.8217 25.8492 90.6443 26.9919C89.467 28.1346 88.1146 28.7059 86.5872 28.7059ZM127.207 33.3006C124.915 34.9353 122.195 35.7526 119.044 35.7526C115.162 35.7526 111.98 34.5068 109.498 32.015C107.016 29.5233 105.775 26.2142 105.775 22.0877C105.775 17.9613 107.008 14.676 109.474 12.2319C111.94 9.78774 115.131 8.56568 119.044 8.56568C122.958 8.56568 126.204 9.77187 128.782 12.1843C131.359 14.5966 132.648 17.9454 132.648 22.2306C132.648 23.1511 132.584 24.0081 132.457 24.8017H114.128C114.287 25.9761 114.812 26.9363 115.703 27.6823C116.594 28.4282 117.557 28.8012 118.591 28.8012C119.625 28.8012 120.397 28.698 120.906 28.4917C121.415 28.2854 121.789 28.079 122.028 27.8727C122.266 27.6664 122.577 27.3252 122.958 26.849H131.789C131.025 29.5154 129.498 31.6659 127.207 33.3006ZM124.152 19.7071H114.176C114.399 18.4692 114.955 17.4614 115.846 16.6837C116.737 15.906 117.835 15.5172 119.14 15.5172C120.445 15.5172 121.574 15.906 122.529 16.6837C123.483 17.4614 124.024 18.4692 124.152 19.7071ZM164.007 8.85135L154.557 35.4194H143.96L134.509 8.85135H143.197L149.258 28.6107L155.32 8.85135H164.007Z" fill="#34495E"/>
<g id="&#62;">
<path d="M180.278 32.9295L188.828 23.6903L180.278 14.4511H171.309L179.859 23.6903L171.309 32.9295H180.278Z" fill="#2ECC71"/>
<path d="M180.278 32.9295L188.828 23.6903L180.278 14.4511H171.309L179.859 23.6903L171.309 32.9295H180.278Z" fill="#D8D8D8"/>
</g>
</g>
</g>
</svg>
