<svg width="191" height="36" viewBox="0 0 191 36" fill="none" xmlns="http://www.w3.org/2000/svg">
<g id="logo">
<path id="we" fill-rule="evenodd" clip-rule="evenodd" d="M55.8154 36C58.9532 36 61.6631 35.1883 63.9452 33.5648C66.2272 31.9413 67.7486 29.8056 68.5093 27.1576H59.7139C59.3335 27.6305 59.0245 27.9694 58.7868 28.1743C58.5491 28.3792 58.1767 28.5841 57.6695 28.789C57.1624 28.9939 56.3938 29.0963 55.3637 29.0963C54.3336 29.0963 53.3748 28.7259 52.4874 27.9851C51.5999 27.2443 51.0769 26.2907 50.9184 25.1243H69.1749C69.3017 24.3363 69.3651 23.4851 69.3651 22.5709C69.3651 18.3152 68.0814 14.9895 65.5141 12.5937C62.9468 10.1979 59.7139 9 55.8154 9C51.9168 9 48.7394 10.2137 46.283 12.641C43.8266 15.0683 42.5984 18.331 42.5984 22.4291C42.5984 26.5271 43.8345 29.8135 46.3068 32.2881C48.779 34.7627 51.9485 36 55.8154 36ZM16.6876 35.669L20.4434 20.0648L24.1518 35.669H32.8997L40.8393 9.28371H33.1849L29.0487 27.8196L24.96 9.28371H16.3548L12.2661 27.8196L8.12983 9.28371H0L7.93966 35.669H16.6876ZM50.966 20.0648H60.9024C60.7757 18.8354 60.2368 17.8345 59.286 17.0622C58.3351 16.2898 57.2099 15.9037 55.9104 15.9037C54.6109 15.9037 53.5174 16.2898 52.63 17.0622C51.7425 17.8345 51.1878 18.8354 50.966 20.0648Z" fill="#2ECC71"/>
<g id="Group 9">
<path id="dev" fill-rule="evenodd" clip-rule="evenodd" d="M84.934 35.7526C88.2609 35.7526 90.916 34.356 92.8993 31.5627V35.4193H101.105V0.185791H92.8993V12.3271C91.0759 9.81947 88.4608 8.56566 85.054 8.56566C81.6471 8.56566 78.7601 9.84328 76.3929 12.3985C74.0257 14.9537 72.8421 18.2152 72.8421 22.183C72.8421 26.1507 74.0257 29.4042 76.3929 31.9436C78.7601 34.483 81.6071 35.7526 84.934 35.7526ZM87.0453 28.7059C85.5098 28.7059 84.1503 28.1425 82.9667 27.0157C81.7831 25.8888 81.1913 24.2779 81.1913 22.183C81.1913 20.088 81.7831 18.4691 82.9667 17.3264C84.1503 16.1837 85.5098 15.6124 87.0453 15.6124C88.5808 15.6124 89.9403 16.1758 91.1239 17.3026C92.3075 18.4295 92.8993 20.0404 92.8993 22.1353C92.8993 24.2303 92.3075 25.8491 91.1239 26.9919C89.9403 28.1346 88.5808 28.7059 87.0453 28.7059ZM127.88 33.3006C125.576 34.9353 122.841 35.7526 119.674 35.7526C115.772 35.7526 112.573 34.5068 110.078 32.015C107.582 29.5233 106.335 26.2142 106.335 22.0877C106.335 17.9613 107.574 14.676 110.054 12.2319C112.533 9.78773 115.74 8.56566 119.674 8.56566C123.609 8.56566 126.872 9.77186 129.463 12.1842C132.054 14.5966 133.35 17.9454 133.35 22.2306C133.35 23.1511 133.286 24.0081 133.158 24.8017H114.732C114.892 25.9761 115.42 26.9363 116.315 27.6822C117.211 28.4282 118.179 28.8011 119.218 28.8011C120.258 28.8011 121.034 28.698 121.546 28.4917C122.058 28.2853 122.433 28.079 122.673 27.8727C122.913 27.6664 123.225 27.3251 123.609 26.849H132.486C131.718 29.5153 130.183 31.6659 127.88 33.3006ZM124.809 19.7071H114.78C115.004 18.4691 115.564 17.4613 116.459 16.6837C117.355 15.906 118.459 15.5171 119.77 15.5171C121.082 15.5171 122.217 15.906 123.177 16.6837C124.137 17.4613 124.681 18.4691 124.809 19.7071ZM164.875 8.85134L155.374 35.4193H144.722L135.221 8.85134H143.954L150.048 28.6107L156.142 8.85134H164.875Z" fill="white"/>
<g id="&#62;">
<path d="M181.232 32.9296L189.827 23.6904L181.232 14.4512H172.216L180.81 23.6904L172.216 32.9296H181.232Z" fill="#2ECC71"/>
<path d="M181.232 32.9296L189.827 23.6904L181.232 14.4512H172.216L180.81 23.6904L172.216 32.9296H181.232Z" fill="white"/>
</g>
</g>
</g>
</svg>
